<?xml version="1.0" encoding="UTF-8" standalone="no"?>
<!DOCTYPE svg PUBLIC "-//W3C//DTD SVG 1.1//EN"
 "http://www.w3.org/Graphics/SVG/1.1/DTD/svg11.dtd">
<!-- Generated by graphviz version 14.1.3 (20260303.0454)
 -->
<!-- Title: MTD&#45;HealthNet Architecture Pages: 1 -->
<svg width="100%" height="100%"
 viewBox="0.00 0.00 4939.00 2171.00" xmlns="http://www.w3.org/2000/svg" xmlns:xlink="http://www.w3.org/1999/xlink">
<defs>
<style type="text/css">
  @keyframes flow {
    to { stroke-dashoffset: -16; }
  }
  .edge > path {
    stroke-dasharray: 8, 4;
    animation: flow 0.6s linear infinite;
  }
</style>
</defs>
<g id="graph0" class="graph" transform="scale(2.77778 2.77778) rotate(0) translate(36 745.44)">

<title>MTD&#45;HealthNet Architecture</title>
<polygon fill="#0f172a" stroke="none" points="-36,36 -36,-745.44 1742.12,-745.44 1742.12,36 -36,36"/>
<text xml:space="preserve" text-anchor="middle" x="853.06" y="-692.14" font-family="Helvetica,sans-serif" font-size="14.00" fill="white">MTD&#45;HealthNet — System Architecture</text>
<g id="clust1" class="cluster">
<title>cluster_operator</title>
<path fill="#0f172a" stroke="#64748b" stroke-dasharray="5,2" d="M686,-589.69C686,-589.69 900,-589.69 900,-589.69 906,-589.69 912,-595.69 912,-601.69 912,-601.69 912,-650.44 912,-650.44 912,-656.44 906,-662.44 900,-662.44 900,-662.44 686,-662.44 686,-662.44 680,-662.44 674,-656.44 674,-650.44 674,-650.44 674,-601.69 674,-601.69 674,-595.69 680,-589.69 686,-589.69"/>
<text xml:space="preserve" text-anchor="middle" x="793" y="-647.04" font-family="Helvetica,sans-serif" font-size="12.00" fill="#94a3b8"> &#160;Operator / External &#160;</text>
</g>
<g id="clust2" class="cluster">
<title>cluster_docker</title>
<path fill="#1a1a2e" stroke="#6366f1" d="M653,-203.22C653,-203.22 1327,-203.22 1327,-203.22 1333,-203.22 1339,-209.22 1339,-215.22 1339,-215.22 1339,-543.69 1339,-543.69 1339,-549.69 1333,-555.69 1327,-555.69 1327,-555.69 653,-555.69 653,-555.69 647,-555.69 641,-549.69 641,-543.69 641,-543.69 641,-215.22 641,-215.22 641,-209.22 647,-203.22 653,-203.22"/>
<text xml:space="preserve" text-anchor="middle" x="990" y="-540.29" font-family="Helvetica,sans-serif" font-size="12.00" fill="#a5b4fc"> &#160;Docker Container (Python 3.8 + Ryu 4.34) &#160;</text>
</g>
<g id="clust3" class="cluster">
<title>cluster_controller</title>
<path fill="#1e293b" stroke="#4f46e5" d="M661,-211.22C661,-211.22 1319,-211.22 1319,-211.22 1325,-211.22 1331,-217.22 1331,-223.22 1331,-223.22 1331,-514.94 1331,-514.94 1331,-520.94 1325,-526.94 1319,-526.94 1319,-526.94 661,-526.94 661,-526.94 655,-526.94 649,-520.94 649,-514.94 649,-514.94 649,-223.22 649,-223.22 649,-217.22 655,-211.22 661,-211.22"/>
<text xml:space="preserve" text-anchor="middle" x="990" y="-512.49" font-family="Helvetica,sans-serif" font-size="11.00" fill="#818cf8"> &#160;mtd_controller.py — Ryu SDN Controller &#160;</text>
</g>
<g id="clust4" class="cluster">
<title>cluster_scheduler</title>
<path fill="#1e293b" stroke="#f59e0b" d="M1138,-589.69C1138,-589.69 1286,-589.69 1286,-589.69 1292,-589.69 1298,-595.69 1298,-601.69 1298,-601.69 1298,-650.44 1298,-650.44 1298,-656.44 1292,-662.44 1286,-662.44 1286,-662.44 1138,-662.44 1138,-662.44 1132,-662.44 1126,-656.44 1126,-650.44 1126,-650.44 1126,-601.69 1126,-601.69 1126,-595.69 1132,-589.69 1138,-589.69"/>
<text xml:space="preserve" text-anchor="middle" x="1212" y="-647.04" font-family="Helvetica,sans-serif" font-size="12.00" fill="#fbbf24"> &#160;zone_scheduler.py &#160;</text>
</g>
<g id="clust5" class="cluster">
<title>cluster_config</title>
<path fill="#1e293b" stroke="#64748b" d="M1359,-208.25C1359,-208.25 1546,-208.25 1546,-208.25 1552,-208.25 1558,-214.25 1558,-220.25 1558,-220.25 1558,-274.94 1558,-274.94 1558,-280.94 1552,-286.94 1546,-286.94 1546,-286.94 1359,-286.94 1359,-286.94 1353,-286.94 1347,-280.94 1347,-274.94 1347,-274.94 1347,-220.25 1347,-220.25 1347,-214.25 1353,-208.25 1359,-208.25"/>
<text xml:space="preserve" text-anchor="middle" x="1452.5" y="-271.54" font-family="Helvetica,sans-serif" font-size="12.00" fill="#94a3b8"> &#160;Configuration &amp; State &#160;</text>
</g>
<g id="clust6" class="cluster">
<title>cluster_mininet</title>
<path fill="#0c1222" stroke="#22c55e" d="M20,-8C20,-8 621,-8 621,-8 627,-8 633,-14 633,-20 633,-20 633,-408.94 633,-408.94 633,-414.94 627,-420.94 621,-420.94 621,-420.94 20,-420.94 20,-420.94 14,-420.94 8,-414.94 8,-408.94 8,-408.94 8,-20 8,-20 8,-14 14,-8 20,-8"/>
<text xml:space="preserve" text-anchor="middle" x="320.5" y="-405.54" font-family="Helvetica,sans-serif" font-size="12.00" fill="#4ade80"> &#160;Mininet Virtual Hospital Network (mininet_topo.py) &#160;</text>
</g>
<g id="clust7" class="cluster">
<title>cluster_ovs</title>
<path fill="#162216" stroke="#22c55e" d="M213,-113.25C213,-113.25 406,-113.25 406,-113.25 412,-113.25 418,-119.25 418,-125.25 418,-125.25 418,-380.19 418,-380.19 418,-386.19 412,-392.19 406,-392.19 406,-392.19 213,-392.19 213,-392.19 207,-392.19 201,-386.19 201,-380.19 201,-380.19 201,-125.25 201,-125.25 201,-119.25 207,-113.25 213,-113.25"/>
<text xml:space="preserve" text-anchor="middle" x="309.5" y="-378.69" font-family="Helvetica,sans-serif" font-size="10.00" fill="#4ade80"> &#160;Open vSwitch s1 — OpenFlow 1.3 Pipeline &#160;</text>
</g>
<g id="clust8" class="cluster">
<title>cluster_high</title>
<path fill="#1f0a0a" stroke="#ef4444" d="M28,-16C28,-16 193,-16 193,-16 199,-16 205,-22 205,-28 205,-28 205,-75.25 205,-75.25 205,-81.25 199,-87.25 193,-87.25 193,-87.25 28,-87.25 28,-87.25 22,-87.25 16,-81.25 16,-75.25 16,-75.25 16,-28 16,-28 16,-22 22,-16 28,-16"/>
<text xml:space="preserve" text-anchor="middle" x="110.5" y="-73.75" font-family="Helvetica,sans-serif" font-size="10.00" fill="#fca5a5"> &#160;Critical Zone (HIGH) &#160;</text>
</g>
<g id="clust9" class="cluster">
<title>cluster_med</title>
<path fill="#1f1a0a" stroke="#f59e0b" d="M448,-16C448,-16 613,-16 613,-16 619,-16 625,-22 625,-28 625,-28 625,-75.25 625,-75.25 625,-81.25 619,-87.25 613,-87.25 613,-87.25 448,-87.25 448,-87.25 442,-87.25 436,-81.25 436,-75.25 436,-75.25 436,-28 436,-28 436,-22 442,-16 448,-16"/>
<text xml:space="preserve" text-anchor="middle" x="530.5" y="-73.75" font-family="Helvetica,sans-serif" font-size="10.00" fill="#fde68a"> &#160;Imaging Zone (MEDIUM) &#160;</text>
</g>
<g id="clust10" class="cluster">
<title>cluster_low</title>
<path fill="#0a1f0a" stroke="#22c55e" d="M238,-16C238,-16 403,-16 403,-16 409,-16 415,-22 415,-28 415,-28 415,-75.25 415,-75.25 415,-81.25 409,-87.25 403,-87.25 403,-87.25 238,-87.25 238,-87.25 232,-87.25 226,-81.25 226,-75.25 226,-75.25 226,-28 226,-28 226,-22 232,-16 238,-16"/>
<text xml:space="preserve" text-anchor="middle" x="320.5" y="-73.75" font-family="Helvetica,sans-serif" font-size="10.00" fill="#86efac"> &#160;Administrative Zone (LOW) &#160;</text>
</g>
<!-- browser -->
<g id="node1" class="node">
<title>browser</title>
<path fill="#1e3a5f" stroke="#3b82f6" stroke-width="1.5" d="M891.88,-633.69C891.88,-633.69 830.12,-633.69 830.12,-633.69 824.12,-633.69 818.12,-627.69 818.12,-621.69 818.12,-621.69 818.12,-609.69 818.12,-609.69 818.12,-603.69 824.12,-597.69 830.12,-597.69 830.12,-597.69 891.88,-597.69 891.88,-597.69 897.88,-597.69 903.88,-603.69 903.88,-609.69 903.88,-609.69 903.88,-621.69 903.88,-621.69 903.88,-627.69 897.88,-633.69 891.88,-633.69"/>
<text xml:space="preserve" text-anchor="middle" x="861" y="-617.44" font-family="Helvetica,sans-serif" font-size="10.00" fill="white">Web Dashboard</text>
<text xml:space="preserve" text-anchor="middle" x="861" y="-606.19" font-family="Helvetica,sans-serif" font-size="10.00" fill="white">(Browser)</text>
</g>
<!-- rest_api -->
<g id="node3" class="node">
<title>rest_api</title>
<polygon fill="#1e3a5f" stroke="#3b82f6" stroke-width="1.5" points="1066.88,-498.94 1005.12,-498.94 1005.12,-494.94 1001.12,-494.94 1001.12,-490.94 1005.12,-490.94 1005.12,-470.94 1001.12,-470.94 1001.12,-466.94 1005.12,-466.94 1005.12,-462.94 1066.88,-462.94 1066.88,-498.94"/>
<polyline fill="none" stroke="#3b82f6" stroke-width="1.5" points="1005.12,-494.94 1009.12,-494.94 1009.12,-490.94 1005.12,-490.94"/>
<polyline fill="none" stroke="#3b82f6" stroke-width="1.5" points="1005.12,-470.94 1009.12,-470.94 1009.12,-466.94 1005.12,-466.94"/>
<text xml:space="preserve" text-anchor="middle" x="1036" y="-482.69" font-family="Helvetica,sans-serif" font-size="10.00" fill="white">REST API</text>
<text xml:space="preserve" text-anchor="middle" x="1036" y="-471.44" font-family="Helvetica,sans-serif" font-size="10.00" fill="white">Port 8000</text>
</g>
<!-- browser&#45;&gt;rest_api -->
<g id="edge1" class="edge">
<title>browser&#45;&gt;rest_api</title>
<path fill="none" stroke="#3b82f6" stroke-width="1.2" d="M884.24,-597.06C914.83,-573.85 968.79,-532.92 1003.44,-506.64"/>
<polygon fill="#3b82f6" stroke="#3b82f6" stroke-width="1.2" points="1005.37,-509.57 1011.22,-500.74 1001.14,-503.99 1005.37,-509.57"/>
<text xml:space="preserve" text-anchor="middle" x="961.8" y="-565.09" font-family="Helvetica,sans-serif" font-size="8.00" fill="#60a5fa"> AJAX /status /logs </text>
</g>
<!-- nmap -->
<g id="node2" class="node">
<title>nmap</title>
<path fill="#3b1a1a" stroke="#ef4444" stroke-width="1.5" d="M769.62,-633.69C769.62,-633.69 694.38,-633.69 694.38,-633.69 688.38,-633.69 682.38,-627.69 682.38,-621.69 682.38,-621.69 682.38,-609.69 682.38,-609.69 682.38,-603.69 688.38,-597.69 694.38,-597.69 694.38,-597.69 769.62,-597.69 769.62,-597.69 775.62,-597.69 781.62,-603.69 781.62,-609.69 781.62,-609.69 781.62,-621.69 781.62,-621.69 781.62,-627.69 775.62,-633.69 769.62,-633.69"/>
<text xml:space="preserve" text-anchor="middle" x="732" y="-617.44" font-family="Helvetica,sans-serif" font-size="10.00" fill="white">Nmap / Wireshark</text>
<text xml:space="preserve" text-anchor="middle" x="732" y="-606.19" font-family="Helvetica,sans-serif" font-size="10.00" fill="white">(Attack Simulation)</text>
</g>
<!-- t0 -->
<g id="node14" class="node">
<title>t0</title>
<path fill="#1a2e1a" stroke="#22c55e" stroke-width="1.5" d="M398.25,-364.94C398.25,-364.94 341.75,-364.94 341.75,-364.94 335.75,-364.94 329.75,-358.94 329.75,-352.94 329.75,-352.94 329.75,-340.94 329.75,-340.94 329.75,-334.94 335.75,-328.94 341.75,-328.94 341.75,-328.94 398.25,-328.94 398.25,-328.94 404.25,-328.94 410.25,-334.94 410.25,-340.94 410.25,-340.94 410.25,-352.94 410.25,-352.94 410.25,-358.94 404.25,-364.94 398.25,-364.94"/>
<text xml:space="preserve" text-anchor="middle" x="370" y="-348.69" font-family="Helvetica,sans-serif" font-size="10.00" fill="white">Table 0: SNAT</text>
<text xml:space="preserve" text-anchor="middle" x="370" y="-337.44" font-family="Helvetica,sans-serif" font-size="10.00" fill="white">(src IP rewrite)</text>
</g>
<!-- nmap&#45;&gt;t0 -->
<g id="edge3" class="edge">
<title>nmap&#45;&gt;t0</title>
<path fill="none" stroke="#ef4444" stroke-width="1.2" stroke-dasharray="5,2" d="M681.65,-603.23C647.5,-593.94 602.37,-578.58 567.25,-555.69 489.94,-505.3 421.08,-418.82 389.03,-375.03"/>
<polygon fill="#ef4444" stroke="#ef4444" stroke-width="1.2" points="391.98,-373.14 383.29,-367.09 386.31,-377.24 391.98,-373.14"/>
<text xml:space="preserve" text-anchor="middle" x="603.62" y="-477.84" font-family="Helvetica,sans-serif" font-size="8.00" fill="#fca5a5"> scan 172.16.0.0/24 </text>
</g>
<!-- dhcp -->
<g id="node5" class="node">
<title>dhcp</title>
<polygon fill="#2d2215" stroke="#f59e0b" stroke-width="1.5" points="845.38,-364.94 768.62,-364.94 768.62,-360.94 764.62,-360.94 764.62,-356.94 768.62,-356.94 768.62,-336.94 764.62,-336.94 764.62,-332.94 768.62,-332.94 768.62,-328.94 845.38,-328.94 845.38,-364.94"/>
<polyline fill="none" stroke="#f59e0b" stroke-width="1.5" points="768.62,-360.94 772.62,-360.94 772.62,-356.94 768.62,-356.94"/>
<polyline fill="none" stroke="#f59e0b" stroke-width="1.5" points="768.62,-336.94 772.62,-336.94 772.62,-332.94 768.62,-332.94"/>
<text xml:space="preserve" text-anchor="middle" x="807" y="-348.69" font-family="Helvetica,sans-serif" font-size="10.00" fill="white">Simulated</text>
<text xml:space="preserve" text-anchor="middle" x="807" y="-337.44" font-family="Helvetica,sans-serif" font-size="10.00" fill="white">DHCP Server</text>
</g>
<!-- rest_api&#45;&gt;dhcp -->
<g id="edge9" class="edge">
<title>rest_api&#45;&gt;dhcp</title>
<path fill="none" stroke="#f59e0b" stroke-width="1.2" d="M1004.41,-474.9C967.64,-467.81 906.44,-452.12 863,-420.94 846.45,-409.06 832.49,-390.89 822.64,-375.65"/>
<polygon fill="#f59e0b" stroke="#f59e0b" stroke-width="1.2" points="825.68,-373.91 817.46,-367.23 819.72,-377.58 825.68,-373.91"/>
<text xml:space="preserve" text-anchor="middle" x="902.15" y="-430.34" font-family="Helvetica,sans-serif" font-size="8.00" fill="#fde68a"> DHCP </text>
</g>
<!-- nat_engine -->
<g id="node6" class="node">
<title>nat_engine</title>
<polygon fill="#2d1530" stroke="#a855f7" stroke-width="1.5" points="733,-364.94 657,-364.94 657,-360.94 653,-360.94 653,-356.94 657,-356.94 657,-336.94 653,-336.94 653,-332.94 657,-332.94 657,-328.94 733,-328.94 733,-364.94"/>
<polyline fill="none" stroke="#a855f7" stroke-width="1.5" points="657,-360.94 661,-360.94 661,-356.94 657,-356.94"/>
<polyline fill="none" stroke="#a855f7" stroke-width="1.5" points="657,-336.94 661,-336.94 661,-332.94 657,-332.94"/>
<text xml:space="preserve" text-anchor="middle" x="695" y="-348.69" font-family="Helvetica,sans-serif" font-size="10.00" fill="white">NAT Engine</text>
<text xml:space="preserve" text-anchor="middle" x="695" y="-337.44" font-family="Helvetica,sans-serif" font-size="10.00" fill="white">(IP Rewriting)</text>
</g>
<!-- rest_api&#45;&gt;nat_engine -->
<g id="edge7" class="edge">
<title>rest_api&#45;&gt;nat_engine</title>
<path fill="none" stroke="#a855f7" stroke-width="1.2" d="M1004.72,-480.36C949.3,-479.7 832.11,-471.82 751,-420.94 733.35,-409.87 719.15,-391.13 709.46,-375.41"/>
<polygon fill="#a855f7" stroke="#a855f7" stroke-width="1.2" points="712.74,-374.07 704.68,-367.19 706.69,-377.59 712.74,-374.07"/>
<text xml:space="preserve" text-anchor="middle" x="792.31" y="-430.34" font-family="Helvetica,sans-serif" font-size="8.00" fill="#c084fc"> shuffle </text>
</g>
<!-- acl -->
<g id="node7" class="node">
<title>acl</title>
<polygon fill="#3b1a1a" stroke="#ef4444" stroke-width="1.5" points="957,-364.94 881,-364.94 881,-360.94 877,-360.94 877,-356.94 881,-356.94 881,-336.94 877,-336.94 877,-332.94 881,-332.94 881,-328.94 957,-328.94 957,-364.94"/>
<polyline fill="none" stroke="#ef4444" stroke-width="1.5" points="881,-360.94 885,-360.94 885,-356.94 881,-356.94"/>
<polyline fill="none" stroke="#ef4444" stroke-width="1.5" points="881,-336.94 885,-336.94 885,-332.94 881,-332.94"/>
<text xml:space="preserve" text-anchor="middle" x="919" y="-348.69" font-family="Helvetica,sans-serif" font-size="10.00" fill="white">Zone ACL</text>
<text xml:space="preserve" text-anchor="middle" x="919" y="-337.44" font-family="Helvetica,sans-serif" font-size="10.00" fill="white">Policy Engine</text>
</g>
<!-- rest_api&#45;&gt;acl -->
<g id="edge8" class="edge">
<title>rest_api&#45;&gt;acl</title>
<path fill="none" stroke="#ef4444" stroke-width="1.2" d="M1009.14,-462.31C999.54,-455.34 989,-446.86 980.5,-437.94 962.41,-418.95 945.88,-394.15 934.53,-375.39"/>
<polygon fill="#ef4444" stroke="#ef4444" stroke-width="1.2" points="937.65,-373.79 929.55,-366.96 931.62,-377.35 937.65,-373.79"/>
<text xml:space="preserve" text-anchor="middle" x="1003.75" y="-430.34" font-family="Helvetica,sans-serif" font-size="8.00" fill="#fca5a5"> policy check </text>
</g>
<!-- crypto -->
<g id="node8" class="node">
<title>crypto</title>
<polygon fill="#1a2e2e" stroke="#06b6d4" stroke-width="1.5" points="1078.88,-364.94 993.12,-364.94 993.12,-360.94 989.12,-360.94 989.12,-356.94 993.12,-356.94 993.12,-336.94 989.12,-336.94 989.12,-332.94 993.12,-332.94 993.12,-328.94 1078.88,-328.94 1078.88,-364.94"/>
<polyline fill="none" stroke="#06b6d4" stroke-width="1.5" points="993.12,-360.94 997.12,-360.94 997.12,-356.94 993.12,-356.94"/>
<polyline fill="none" stroke="#06b6d4" stroke-width="1.5" points="993.12,-336.94 997.12,-336.94 997.12,-332.94 993.12,-332.94"/>
<text xml:space="preserve" text-anchor="middle" x="1036" y="-348.69" font-family="Helvetica,sans-serif" font-size="10.00" fill="white">AES&#45;256&#45;GCM</text>
<text xml:space="preserve" text-anchor="middle" x="1036" y="-337.44" font-family="Helvetica,sans-serif" font-size="10.00" fill="white">HMAC&#45;SHA256</text>
</g>
<!-- rest_api&#45;&gt;crypto -->
<g id="edge10" class="edge">
<title>rest_api&#45;&gt;crypto</title>
<path fill="none" stroke="#06b6d4" stroke-width="1.2" d="M1036,-462.41C1036,-440.71 1036,-403.44 1036,-377.34"/>
<polygon fill="#06b6d4" stroke="#06b6d4" stroke-width="1.2" points="1039.5,-377.35 1036,-367.35 1032.5,-377.35 1039.5,-377.35"/>
<text xml:space="preserve" text-anchor="middle" x="1061.88" y="-430.34" font-family="Helvetica,sans-serif" font-size="8.00" fill="#67e8f9"> encrypt/verify </text>
</g>
<!-- dns -->
<g id="node9" class="node">
<title>dns</title>
<polygon fill="#2d2215" stroke="#f59e0b" stroke-width="1.5" points="1194.88,-364.94 1115.12,-364.94 1115.12,-360.94 1111.12,-360.94 1111.12,-356.94 1115.12,-356.94 1115.12,-336.94 1111.12,-336.94 1111.12,-332.94 1115.12,-332.94 1115.12,-328.94 1194.88,-328.94 1194.88,-364.94"/>
<polyline fill="none" stroke="#f59e0b" stroke-width="1.5" points="1115.12,-360.94 1119.12,-360.94 1119.12,-356.94 1115.12,-356.94"/>
<polyline fill="none" stroke="#f59e0b" stroke-width="1.5" points="1115.12,-336.94 1119.12,-336.94 1119.12,-332.94 1115.12,-332.94"/>
<text xml:space="preserve" text-anchor="middle" x="1155" y="-343.06" font-family="Helvetica,sans-serif" font-size="10.00" fill="white">DNS Resolver</text>
</g>
<!-- rest_api&#45;&gt;dns -->
<g id="edge11" class="edge">
<title>rest_api&#45;&gt;dns</title>
<path fill="none" stroke="#f59e0b" stroke-width="1.2" d="M1066.69,-462.23C1077.01,-455.43 1088.14,-447.07 1097,-437.94 1114.85,-419.53 1130.3,-394.83 1140.76,-375.97"/>
<polygon fill="#f59e0b" stroke="#f59e0b" stroke-width="1.2" points="1143.81,-377.69 1145.46,-367.22 1137.64,-374.37 1143.81,-377.69"/>
<text xml:space="preserve" text-anchor="middle" x="1119.78" y="-430.34" font-family="Helvetica,sans-serif" font-size="8.00" fill="#fde68a"> resolve </text>
</g>
<!-- static_srv -->
<g id="node10" class="node">
<title>static_srv</title>
<polygon fill="#1e3a5f" stroke="#3b82f6" stroke-width="1.5" points="1322.88,-364.94 1231.12,-364.94 1231.12,-360.94 1227.12,-360.94 1227.12,-356.94 1231.12,-356.94 1231.12,-336.94 1227.12,-336.94 1227.12,-332.94 1231.12,-332.94 1231.12,-328.94 1322.88,-328.94 1322.88,-364.94"/>
<polyline fill="none" stroke="#3b82f6" stroke-width="1.5" points="1231.12,-360.94 1235.12,-360.94 1235.12,-356.94 1231.12,-356.94"/>
<polyline fill="none" stroke="#3b82f6" stroke-width="1.5" points="1231.12,-336.94 1235.12,-336.94 1235.12,-332.94 1231.12,-332.94"/>
<text xml:space="preserve" text-anchor="middle" x="1277" y="-348.69" font-family="Helvetica,sans-serif" font-size="10.00" fill="white">Static File Server</text>
<text xml:space="preserve" text-anchor="middle" x="1277" y="-337.44" font-family="Helvetica,sans-serif" font-size="10.00" fill="white">(web/ dashboard)</text>
</g>
<!-- rest_api&#45;&gt;static_srv -->
<g id="edge2" class="edge">
<title>rest_api&#45;&gt;static_srv</title>
<path fill="none" stroke="#3b82f6" stroke-width="1.2" stroke-dasharray="5,2" d="M1067.3,-474.69C1104.5,-467.33 1167.27,-451.32 1213,-420.94 1231.08,-408.93 1247.17,-390.52 1258.69,-375.2"/>
<polygon fill="#3b82f6" stroke="#3b82f6" stroke-width="1.2" points="1261.49,-377.3 1264.51,-367.15 1255.82,-373.2 1261.49,-377.3"/>
<text xml:space="preserve" text-anchor="middle" x="1224.25" y="-430.34" font-family="Helvetica,sans-serif" font-size="8.00" fill="#60a5fa"> HTML/CSS/JS </text>
</g>
<!-- topo_agent -->
<g id="node17" class="node">
<title>topo_agent</title>
<polygon fill="#1e293b" stroke="#64748b" stroke-width="1.5" points="535.88,-157.25 426.12,-157.25 426.12,-153.25 422.12,-153.25 422.12,-149.25 426.12,-149.25 426.12,-129.25 422.12,-129.25 422.12,-125.25 426.12,-125.25 426.12,-121.25 535.88,-121.25 535.88,-157.25"/>
<polyline fill="none" stroke="#64748b" stroke-width="1.5" points="426.12,-153.25 430.12,-153.25 430.12,-149.25 426.12,-149.25"/>
<polyline fill="none" stroke="#64748b" stroke-width="1.5" points="426.12,-129.25 430.12,-129.25 430.12,-125.25 426.12,-125.25"/>
<text xml:space="preserve" text-anchor="middle" x="481" y="-141" font-family="Helvetica,sans-serif" font-size="10.00" fill="white">Topology Agent :8888</text>
<text xml:space="preserve" text-anchor="middle" x="481" y="-129.75" font-family="Helvetica,sans-serif" font-size="10.00" fill="white">(Cmd Executor)</text>
</g>
<!-- rest_api&#45;&gt;topo_agent -->
<g id="edge26" class="edge">
<title>rest_api&#45;&gt;topo_agent</title>
<path fill="none" stroke="#64748b" stroke-width="1.2" d="M1067.21,-475.86C1202.75,-457.04 1726.46,-372.19 1567,-203.22 1531.92,-166.05 779.55,-146.71 548.13,-141.63"/>
<polygon fill="#64748b" stroke="#64748b" stroke-width="1.2" points="548.42,-138.14 538.35,-141.42 548.27,-145.13 548.42,-138.14"/>
<text xml:space="preserve" text-anchor="middle" x="1631.07" y="-296.34" font-family="Helvetica,sans-serif" font-size="8.00" fill="#94a3b8"> POST /exec (ping,curl) </text>
</g>
<!-- of_engine -->
<g id="node4" class="node">
<title>of_engine</title>
<polygon fill="#1a2e1a" stroke="#22c55e" stroke-width="1.5" points="740.75,-255.22 657.25,-255.22 657.25,-251.22 653.25,-251.22 653.25,-247.22 657.25,-247.22 657.25,-227.22 653.25,-227.22 653.25,-223.22 657.25,-223.22 657.25,-219.22 740.75,-219.22 740.75,-255.22"/>
<polyline fill="none" stroke="#22c55e" stroke-width="1.5" points="657.25,-251.22 661.25,-251.22 661.25,-247.22 657.25,-247.22"/>
<polyline fill="none" stroke="#22c55e" stroke-width="1.5" points="657.25,-227.22 661.25,-227.22 661.25,-223.22 657.25,-223.22"/>
<text xml:space="preserve" text-anchor="middle" x="699" y="-238.97" font-family="Helvetica,sans-serif" font-size="10.00" fill="white">OpenFlow 1.3</text>
<text xml:space="preserve" text-anchor="middle" x="699" y="-227.72" font-family="Helvetica,sans-serif" font-size="10.00" fill="white">Packet Handler</text>
</g>
<!-- of_engine&#45;&gt;t0 -->
<g id="edge15" class="edge">
<title>of_engine&#45;&gt;t0</title>
<path fill="none" stroke="#22c55e" stroke-width="1.2" d="M656.74,-244.68C581.01,-256.52 428.1,-281.69 407.25,-294.94 398.07,-300.77 390.41,-309.74 384.47,-318.54"/>
<polygon fill="#22c55e" stroke="#22c55e" stroke-width="1.2" points="381.5,-316.69 379.26,-327.04 387.47,-320.35 381.5,-316.69"/>
<text xml:space="preserve" text-anchor="middle" x="460.12" y="-296.34" font-family="Helvetica,sans-serif" font-size="8.00" fill="#4ade80"> OFPFlowMod (install/delete) </text>
</g>
<!-- sqlite -->
<g id="node13" class="node">
<title>sqlite</title>
<path fill="#1a2e2e" stroke="#06b6d4" stroke-width="1.5" d="M1428.5,-254.38C1428.5,-256.48 1412.14,-258.19 1392,-258.19 1371.86,-258.19 1355.5,-256.48 1355.5,-254.38 1355.5,-254.38 1355.5,-220.06 1355.5,-220.06 1355.5,-217.96 1371.86,-216.25 1392,-216.25 1412.14,-216.25 1428.5,-217.96 1428.5,-220.06 1428.5,-220.06 1428.5,-254.38 1428.5,-254.38"/>
<path fill="none" stroke="#06b6d4" stroke-width="1.5" d="M1428.5,-254.38C1428.5,-252.27 1412.14,-250.56 1392,-250.56 1371.86,-250.56 1355.5,-252.27 1355.5,-254.38"/>
<text xml:space="preserve" text-anchor="middle" x="1392" y="-238.97" font-family="Helvetica,sans-serif" font-size="10.00" fill="white">mtd_state.db</text>
<text xml:space="preserve" text-anchor="middle" x="1392" y="-227.72" font-family="Helvetica,sans-serif" font-size="10.00" fill="white">(SQLite)</text>
</g>
<!-- dhcp&#45;&gt;sqlite -->
<g id="edge13" class="edge">
<title>dhcp&#45;&gt;sqlite</title>
<path fill="none" stroke="#06b6d4" stroke-width="1.2" stroke-dasharray="5,2" d="M845.97,-333.32C851.65,-331.71 857.45,-330.19 863,-328.94 961.21,-306.7 986.72,-304.1 1087,-294.94 1115.01,-292.38 1314.01,-297.69 1340,-286.94 1350.49,-282.6 1360.15,-275.1 1368.22,-267.28"/>
<polygon fill="#06b6d4" stroke="#06b6d4" stroke-width="1.2" points="1370.69,-269.76 1375.06,-260.11 1365.62,-264.93 1370.69,-269.76"/>
<text xml:space="preserve" text-anchor="middle" x="1100.5" y="-296.34" font-family="Helvetica,sans-serif" font-size="8.00" fill="#67e8f9"> leases </text>
</g>
<!-- nat_engine&#45;&gt;of_engine -->
<g id="edge17" class="edge">
<title>nat_engine&#45;&gt;of_engine</title>
<path fill="none" stroke="#a855f7" stroke-width="1.2" d="M695.64,-328.63C696.25,-312.16 697.19,-287.06 697.91,-267.48"/>
<polygon fill="#a855f7" stroke="#a855f7" stroke-width="1.2" points="701.4,-267.78 698.28,-257.66 694.41,-267.52 701.4,-267.78"/>
<text xml:space="preserve" text-anchor="middle" x="725.38" y="-296.34" font-family="Helvetica,sans-serif" font-size="8.00" fill="#c084fc"> new NAT rules </text>
</g>
<!-- nat_engine&#45;&gt;sqlite -->
<g id="edge12" class="edge">
<title>nat_engine&#45;&gt;sqlite</title>
<path fill="none" stroke="#06b6d4" stroke-width="1.2" stroke-dasharray="5,2" d="M733.71,-333.57C739.48,-331.91 745.37,-330.31 751,-328.94 831.8,-309.27 852.26,-303.34 935,-294.94 957.39,-292.66 1319.15,-295.42 1340,-286.94 1350.52,-282.66 1360.18,-275.18 1368.25,-267.36"/>
<polygon fill="#06b6d4" stroke="#06b6d4" stroke-width="1.2" points="1370.73,-269.83 1375.09,-260.17 1365.66,-265 1370.73,-269.83"/>
<text xml:space="preserve" text-anchor="middle" x="963.5" y="-296.34" font-family="Helvetica,sans-serif" font-size="8.00" fill="#67e8f9"> NAT mappings </text>
</g>
<!-- dns&#45;&gt;sqlite -->
<g id="edge14" class="edge">
<title>dns&#45;&gt;sqlite</title>
<path fill="none" stroke="#06b6d4" stroke-width="1.2" stroke-dasharray="5,2" d="M1195.46,-334.07C1245.97,-319.09 1327.32,-294.38 1340,-286.94 1349.3,-281.48 1358.3,-274.09 1366.12,-266.71"/>
<polygon fill="#06b6d4" stroke="#06b6d4" stroke-width="1.2" points="1368.48,-269.3 1373.12,-259.78 1363.55,-264.33 1368.48,-269.3"/>
<text xml:space="preserve" text-anchor="middle" x="1342.92" y="-296.34" font-family="Helvetica,sans-serif" font-size="8.00" fill="#67e8f9"> DNS records </text>
</g>
<!-- scheduler -->
<g id="node11" class="node">
<title>scheduler</title>
<path fill="#2d2215" stroke="#f59e0b" stroke-width="1.5" d="M1277.75,-633.69C1277.75,-633.69 1146.25,-633.69 1146.25,-633.69 1140.25,-633.69 1134.25,-627.69 1134.25,-621.69 1134.25,-621.69 1134.25,-609.69 1134.25,-609.69 1134.25,-603.69 1140.25,-597.69 1146.25,-597.69 1146.25,-597.69 1277.75,-597.69 1277.75,-597.69 1283.75,-597.69 1289.75,-603.69 1289.75,-609.69 1289.75,-609.69 1289.75,-621.69 1289.75,-621.69 1289.75,-627.69 1283.75,-633.69 1277.75,-633.69"/>
<text xml:space="preserve" text-anchor="middle" x="1212" y="-617.44" font-family="Helvetica,sans-serif" font-size="10.00" fill="white">Zone Timer Daemon</text>
<text xml:space="preserve" text-anchor="middle" x="1212" y="-606.19" font-family="Helvetica,sans-serif" font-size="10.00" fill="white">high=120s &#160;med=100s &#160;low=80s</text>
</g>
<!-- scheduler&#45;&gt;rest_api -->
<g id="edge4" class="edge">
<title>scheduler&#45;&gt;rest_api</title>
<path fill="none" stroke="#f59e0b" stroke-width="1.2" d="M1188.63,-597.06C1157.86,-573.85 1103.6,-532.92 1068.75,-506.64"/>
<polygon fill="#f59e0b" stroke="#f59e0b" stroke-width="1.2" points="1071.01,-503.96 1060.92,-500.73 1066.79,-509.55 1071.01,-503.96"/>
<text xml:space="preserve" text-anchor="middle" x="1181.7" y="-565.09" font-family="Helvetica,sans-serif" font-size="8.00" fill="#fde68a"> POST /shuffle </text>
</g>
<!-- policies -->
<g id="node12" class="node">
<title>policies</title>
<polygon fill="#2d2215" stroke="#f59e0b" stroke-width="1.5" points="1543.5,-255.22 1464.5,-255.22 1464.5,-219.22 1549.5,-219.22 1549.5,-249.22 1543.5,-255.22"/>
<polyline fill="none" stroke="#f59e0b" stroke-width="1.5" points="1543.5,-255.22 1543.5,-249.22"/>
<polyline fill="none" stroke="#f59e0b" stroke-width="1.5" points="1549.5,-249.22 1543.5,-249.22"/>
<text xml:space="preserve" text-anchor="middle" x="1507" y="-238.97" font-family="Helvetica,sans-serif" font-size="10.00" fill="white">policies.yml</text>
<text xml:space="preserve" text-anchor="middle" x="1507" y="-227.72" font-family="Helvetica,sans-serif" font-size="10.00" fill="white">(Zones + ACLs)</text>
</g>
<!-- policies&#45;&gt;acl -->
<g id="edge5" class="edge">
<title>policies&#45;&gt;acl</title>
<path fill="none" stroke="#f59e0b" stroke-width="1.2" stroke-dasharray="5,2" d="M1491.56,-255.58C1480.42,-266.78 1464.34,-280.43 1447,-286.94 1424.05,-295.55 1250.93,-292.85 1226.5,-294.94 1114.12,-304.55 1085.21,-304.92 975,-328.94 972.97,-329.38 970.9,-329.86 968.82,-330.37"/>
<polygon fill="#f59e0b" stroke="#f59e0b" stroke-width="1.2" points="968.18,-326.92 959.41,-332.86 969.97,-333.69 968.18,-326.92"/>
<text xml:space="preserve" text-anchor="middle" x="1257.25" y="-296.34" font-family="Helvetica,sans-serif" font-size="8.00" fill="#fde68a"> zone+ACL rules </text>
</g>
<!-- policies&#45;&gt;scheduler -->
<g id="edge6" class="edge">
<title>policies&#45;&gt;scheduler</title>
<path fill="none" stroke="#f59e0b" stroke-width="1.2" stroke-dasharray="5,2" d="M1550.2,-237.92C1593.7,-240.23 1658.84,-251.37 1691,-294.94 1731.73,-350.12 1681.76,-389.71 1633,-437.94 1541.02,-528.91 1395.23,-575.72 1301.61,-597.71"/>
<polygon fill="#f59e0b" stroke="#f59e0b" stroke-width="1.2" points="1300.91,-594.28 1291.94,-599.93 1302.47,-601.1 1300.91,-594.28"/>
<text xml:space="preserve" text-anchor="middle" x="1664.49" y="-430.34" font-family="Helvetica,sans-serif" font-size="8.00" fill="#fde68a"> zone config </text>
</g>
<!-- t0&#45;&gt;of_engine -->
<g id="edge16" class="edge">
<title>t0&#45;&gt;of_engine</title>
<path fill="none" stroke="#4ade80" stroke-width="1.2" stroke-dasharray="5,2" d="M410.75,-335.22C440.61,-327.16 482.04,-315.55 518,-303.94 561.39,-289.92 609.92,-272.19 645.8,-258.67"/>
<polygon fill="#4ade80" stroke="#4ade80" stroke-width="1.2" points="646.7,-262.08 654.81,-255.27 644.22,-255.53 646.7,-262.08"/>
<text xml:space="preserve" text-anchor="middle" x="590.11" y="-296.34" font-family="Helvetica,sans-serif" font-size="8.00" fill="#4ade80"> PacketIn (ARP/unknown) </text>
</g>
<!-- t1 -->
<g id="node15" class="node">
<title>t1</title>
<path fill="#1a2e1a" stroke="#22c55e" stroke-width="1.5" d="M373.25,-255.22C373.25,-255.22 316.75,-255.22 316.75,-255.22 310.75,-255.22 304.75,-249.22 304.75,-243.22 304.75,-243.22 304.75,-231.22 304.75,-231.22 304.75,-225.22 310.75,-219.22 316.75,-219.22 316.75,-219.22 373.25,-219.22 373.25,-219.22 379.25,-219.22 385.25,-225.22 385.25,-231.22 385.25,-231.22 385.25,-243.22 385.25,-243.22 385.25,-249.22 379.25,-255.22 373.25,-255.22"/>
<text xml:space="preserve" text-anchor="middle" x="345" y="-238.97" font-family="Helvetica,sans-serif" font-size="10.00" fill="white">Table 1: DNAT</text>
<text xml:space="preserve" text-anchor="middle" x="345" y="-227.72" font-family="Helvetica,sans-serif" font-size="10.00" fill="white">(dst IP rewrite)</text>
</g>
<!-- t0&#45;&gt;t1 -->
<g id="edge18" class="edge">
<title>t0&#45;&gt;t1</title>
<path fill="none" stroke="#22c55e" stroke-width="2" d="M355.83,-328.19C351.01,-321.08 346.22,-312.53 343.75,-303.94 340.53,-292.71 340.08,-279.95 340.71,-268.68"/>
<polygon fill="#22c55e" stroke="#22c55e" stroke-width="2" points="344.18,-269.17 341.61,-258.89 337.21,-268.53 344.18,-269.17"/>
<text xml:space="preserve" text-anchor="middle" x="353.88" y="-296.34" font-family="Helvetica,sans-serif" font-size="8.00" fill="#4ade80"> goto </text>
</g>
<!-- t2 -->
<g id="node16" class="node">
<title>t2</title>
<path fill="#1a2e1a" stroke="#22c55e" stroke-width="1.5" d="M378.25,-157.25C378.25,-157.25 309.75,-157.25 309.75,-157.25 303.75,-157.25 297.75,-151.25 297.75,-145.25 297.75,-145.25 297.75,-133.25 297.75,-133.25 297.75,-127.25 303.75,-121.25 309.75,-121.25 309.75,-121.25 378.25,-121.25 378.25,-121.25 384.25,-121.25 390.25,-127.25 390.25,-133.25 390.25,-133.25 390.25,-145.25 390.25,-145.25 390.25,-151.25 384.25,-157.25 378.25,-157.25"/>
<text xml:space="preserve" text-anchor="middle" x="344" y="-141" font-family="Helvetica,sans-serif" font-size="10.00" fill="white">Table 2: L2/IP</text>
<text xml:space="preserve" text-anchor="middle" x="344" y="-129.75" font-family="Helvetica,sans-serif" font-size="10.00" fill="white">(MAC forwarding)</text>
</g>
<!-- t1&#45;&gt;t2 -->
<g id="edge19" class="edge">
<title>t1&#45;&gt;t2</title>
<path fill="none" stroke="#22c55e" stroke-width="2" d="M344.82,-218.62C344.68,-205.22 344.48,-186.47 344.32,-170.66"/>
<polygon fill="#22c55e" stroke="#22c55e" stroke-width="2" points="347.82,-170.73 344.21,-160.77 340.82,-170.8 347.82,-170.73"/>
<text xml:space="preserve" text-anchor="middle" x="354.65" y="-183.65" font-family="Helvetica,sans-serif" font-size="8.00" fill="#4ade80"> goto </text>
</g>
<!-- h1 -->
<g id="node18" class="node">
<title>h1</title>
<path fill="#3b1a1a" stroke="#ef4444" stroke-width="1.5" d="M80.25,-60C80.25,-60 35.75,-60 35.75,-60 29.75,-60 23.75,-54 23.75,-48 23.75,-48 23.75,-36 23.75,-36 23.75,-30 29.75,-24 35.75,-24 35.75,-24 80.25,-24 80.25,-24 86.25,-24 92.25,-30 92.25,-36 92.25,-36 92.25,-48 92.25,-48 92.25,-54 86.25,-60 80.25,-60"/>
<text xml:space="preserve" text-anchor="middle" x="58" y="-43.75" font-family="Helvetica,sans-serif" font-size="10.00" fill="white">h1 &#160;10.0.0.1</text>
<text xml:space="preserve" text-anchor="middle" x="58" y="-32.5" font-family="Helvetica,sans-serif" font-size="10.00" fill="white">Agent :8080</text>
</g>
<!-- t2&#45;&gt;h1 -->
<g id="edge20" class="edge">
<title>t2&#45;&gt;h1</title>
<path fill="none" stroke="#334155" d="M297.19,-134.61C248.54,-129.35 171.24,-116.76 111,-87.25 97.44,-80.6 84.39,-69.78 74.63,-60.5"/>
<polygon fill="#334155" stroke="#334155" points="74.63,-60.50 79.47,-69.93 84.29,-64.85 74.63,-60.50"/>
</g>
<!-- h2 -->
<g id="node19" class="node">
<title>h2</title>
<path fill="#3b1a1a" stroke="#ef4444" stroke-width="1.5" d="M185.25,-60C185.25,-60 140.75,-60 140.75,-60 134.75,-60 128.75,-54 128.75,-48 128.75,-48 128.75,-36 128.75,-36 128.75,-30 134.75,-24 140.75,-24 140.75,-24 185.25,-24 185.25,-24 191.25,-24 197.25,-30 197.25,-36 197.25,-36 197.25,-48 197.25,-48 197.25,-54 191.25,-60 185.25,-60"/>
<text xml:space="preserve" text-anchor="middle" x="163" y="-43.75" font-family="Helvetica,sans-serif" font-size="10.00" fill="white">h2 &#160;10.0.0.2</text>
<text xml:space="preserve" text-anchor="middle" x="163" y="-32.5" font-family="Helvetica,sans-serif" font-size="10.00" fill="white">Agent :8080</text>
</g>
<!-- t2&#45;&gt;h2 -->
<g id="edge21" class="edge">
<title>t2&#45;&gt;h2</title>
<path fill="none" stroke="#334155" d="M297.15,-123.3C272.45,-114.48 242.15,-102.13 217,-87.25 204.27,-79.72 191.41,-69.32 181.44,-60.49"/>
<polygon fill="#334155" stroke="#334155" points="181.44,-60.49 186.61,-69.74 191.25,-64.50 181.44,-60.49"/>
</g>
<!-- h3 -->
<g id="node20" class="node">
<title>h3</title>
<path fill="#2d2215" stroke="#f59e0b" stroke-width="1.5" d="M500.25,-60C500.25,-60 455.75,-60 455.75,-60 449.75,-60 443.75,-54 443.75,-48 443.75,-48 443.75,-36 443.75,-36 443.75,-30 449.75,-24 455.75,-24 455.75,-24 500.25,-24 500.25,-24 506.25,-24 512.25,-30 512.25,-36 512.25,-36 512.25,-48 512.25,-48 512.25,-54 506.25,-60 500.25,-60"/>
<text xml:space="preserve" text-anchor="middle" x="478" y="-43.75" font-family="Helvetica,sans-serif" font-size="10.00" fill="white">h3 &#160;10.0.0.3</text>
<text xml:space="preserve" text-anchor="middle" x="478" y="-32.5" font-family="Helvetica,sans-serif" font-size="10.00" fill="white">Agent :8080</text>
</g>
<!-- t2&#45;&gt;h3 -->
<g id="edge22" class="edge">
<title>t2&#45;&gt;h3</title>
<path fill="none" stroke="#334155" d="M362.27,-120.85C372.2,-112.16 385.07,-102.07 398,-95.25 408.69,-89.61 413.35,-92.97 424,-87.25 437.24,-80.14 450.33,-69.54 460.3,-60.49"/>
<polygon fill="#334155" stroke="#334155" points="460.30,-60.49 450.54,-64.62 455.25,-69.80 460.30,-60.49"/>
</g>
<!-- h4 -->
<g id="node21" class="node">
<title>h4</title>
<path fill="#2d2215" stroke="#f59e0b" stroke-width="1.5" d="M605.25,-60C605.25,-60 560.75,-60 560.75,-60 554.75,-60 548.75,-54 548.75,-48 548.75,-48 548.75,-36 548.75,-36 548.75,-30 554.75,-24 560.75,-24 560.75,-24 605.25,-24 605.25,-24 611.25,-24 617.25,-30 617.25,-36 617.25,-36 617.25,-48 617.25,-48 617.25,-54 611.25,-60 605.25,-60"/>
<text xml:space="preserve" text-anchor="middle" x="583" y="-43.75" font-family="Helvetica,sans-serif" font-size="10.00" fill="white">h4 &#160;10.0.0.4</text>
<text xml:space="preserve" text-anchor="middle" x="583" y="-32.5" font-family="Helvetica,sans-serif" font-size="10.00" fill="white">Agent :8080</text>
</g>
<!-- t2&#45;&gt;h4 -->
<g id="edge23" class="edge">
<title>t2&#45;&gt;h4</title>
<path fill="none" stroke="#334155" d="M365.91,-120.7C378.83,-111.39 395.94,-100.77 413,-95.25 462.59,-79.21 481.63,-106.68 530,-87.25 544.46,-81.44 557.9,-70.12 567.63,-60.39"/>
<polygon fill="#334155" stroke="#334155" points="567.63,-60.39 558.08,-64.99 563.03,-69.94 567.63,-60.39"/>
</g>
<!-- h5 -->
<g id="node22" class="node">
<title>h5</title>
<path fill="#1a2e1a" stroke="#22c55e" stroke-width="1.5" d="M290.25,-60C290.25,-60 245.75,-60 245.75,-60 239.75,-60 233.75,-54 233.75,-48 233.75,-48 233.75,-36 233.75,-36 233.75,-30 239.75,-24 245.75,-24 245.75,-24 290.25,-24 290.25,-24 296.25,-24 302.25,-30 302.25,-36 302.25,-36 302.25,-48 302.25,-48 302.25,-54 296.25,-60 290.25,-60"/>
<text xml:space="preserve" text-anchor="middle" x="268" y="-43.75" font-family="Helvetica,sans-serif" font-size="10.00" fill="white">h5 &#160;10.0.0.5</text>
<text xml:space="preserve" text-anchor="middle" x="268" y="-32.5" font-family="Helvetica,sans-serif" font-size="10.00" fill="white">Agent :8080</text>
</g>
<!-- t2&#45;&gt;h5 -->
<g id="edge24" class="edge">
<title>t2&#45;&gt;h5</title>
<path fill="none" stroke="#334155" d="M330.06,-120.78C316.43,-103.7 295.79,-77.83 282.11,-60.68"/>
<polygon fill="#334155" stroke="#334155" points="282.11,-60.68 285.61,-70.68 291.08,-66.32 282.11,-60.68"/>
</g>
<!-- h6 -->
<g id="node23" class="node">
<title>h6</title>
<path fill="#1a2e1a" stroke="#22c55e" stroke-width="1.5" d="M395.25,-60C395.25,-60 350.75,-60 350.75,-60 344.75,-60 338.75,-54 338.75,-48 338.75,-48 338.75,-36 338.75,-36 338.75,-30 344.75,-24 350.75,-24 350.75,-24 395.25,-24 395.25,-24 401.25,-24 407.25,-30 407.25,-36 407.25,-36 407.25,-48 407.25,-48 407.25,-54 401.25,-60 395.25,-60"/>
<text xml:space="preserve" text-anchor="middle" x="373" y="-43.75" font-family="Helvetica,sans-serif" font-size="10.00" fill="white">h6 &#160;10.0.0.6</text>
<text xml:space="preserve" text-anchor="middle" x="373" y="-32.5" font-family="Helvetica,sans-serif" font-size="10.00" fill="white">Agent :8080</text>
</g>
<!-- t2&#45;&gt;h6 -->
<g id="edge25" class="edge">
<title>t2&#45;&gt;h6</title>
<path fill="none" stroke="#334155" d="M349.32,-120.78C354.52,-103.7 362.39,-77.83 367.62,-60.68"/>
<polygon fill="#334155" stroke="#334155" points="367.62,-60.68 361.36,-69.22 368.05,-71.27 367.62,-60.68"/>
</g>
<!-- topo_agent&#45;&gt;h1 -->
<g id="edge27" class="edge">
<title>topo_agent&#45;&gt;h1</title>
<path fill="none" stroke="#334155" stroke-width="0.8" stroke-dasharray="5,2" d="M444.16,-120.54C436.95,-117.68 429.34,-115.06 422,-113.25 354.67,-96.62 175.16,-113.59 111,-87.25 100.19,-82.81 89.92,-75.34 81.36,-67.78"/>
<polygon fill="#334155" stroke="#334155" stroke-width="0.8" points="74.11,-60.97 84.48,-64.54 77.05,-63.73 81.4,-67.82 81.4,-67.82 81.4,-67.82 77.05,-63.73 78.32,-71.1 74.11,-60.97"/>
</g>
<!-- topo_agent&#45;&gt;h2 -->
<g id="edge28" class="edge">
<title>topo_agent&#45;&gt;h2</title>
<path fill="none" stroke="#334155" stroke-width="0.8" stroke-dasharray="5,2" d="M470.65,-120.83C464.03,-111.45 454.53,-100.7 443,-95.25 397.56,-73.79 264.02,-105 217,-87.25 205.83,-83.03 195.26,-75.51 186.48,-67.85"/>
<polygon fill="#334155" stroke="#334155" stroke-width="0.8" points="179.37,-61.23 189.75,-64.75 182.31,-63.97 186.69,-68.04 186.69,-68.04 186.69,-68.04 182.31,-63.97 183.62,-71.33 179.37,-61.23"/>
</g>
<!-- topo_agent&#45;&gt;h3 -->
<g id="edge29" class="edge">
<title>topo_agent&#45;&gt;h3</title>
<path fill="none" stroke="#334155" stroke-width="0.8" stroke-dasharray="5,2" d="M480.45,-120.78C480.02,-107.04 479.4,-87.6 478.9,-71.6"/>
<polygon fill="#334155" stroke="#334155" stroke-width="0.8" points="478.59,-61.66 483.4,-71.51 478.71,-65.68 478.9,-71.65 478.9,-71.65 478.9,-71.65 478.71,-65.68 474.4,-71.79 478.59,-61.66"/>
</g>
<!-- topo_agent&#45;&gt;h4 -->
<g id="edge30" class="edge">
<title>topo_agent&#45;&gt;h4</title>
<path fill="none" stroke="#334155" stroke-width="0.8" stroke-dasharray="5,2" d="M499.71,-120.78C515.57,-105.97 538.51,-84.55 556.3,-67.94"/>
<polygon fill="#334155" stroke="#334155" stroke-width="0.8" points="563.35,-61.35 559.11,-71.46 560.41,-64.09 556.04,-68.17 556.04,-68.17 556.04,-68.17 560.41,-64.09 552.97,-64.88 563.35,-61.35"/>
</g>
<!-- topo_agent&#45;&gt;h5 -->
<g id="edge31" class="edge">
<title>topo_agent&#45;&gt;h5</title>
<path fill="none" stroke="#334155" stroke-width="0.8" stroke-dasharray="5,2" d="M475.38,-120.66C471.47,-111.46 465.27,-100.95 456,-95.25 430.41,-79.5 348.94,-98.33 321,-87.25 310.14,-82.94 299.86,-75.5 291.3,-67.93"/>
<polygon fill="#334155" stroke="#334155" stroke-width="0.8" points="284.06,-61.1 294.42,-64.69 286.99,-63.86 291.33,-67.96 291.33,-67.96 291.33,-67.96 286.99,-63.86 288.25,-71.24 284.06,-61.1"/>
</g>
<!-- topo_agent&#45;&gt;h6 -->
<g id="edge32" class="edge">
<title>topo_agent&#45;&gt;h6</title>
<path fill="none" stroke="#334155" stroke-width="0.8" stroke-dasharray="5,2" d="M478.59,-120.88C476.47,-111.99 472.48,-101.7 465,-95.25 451.92,-83.99 442.56,-94.71 427,-87.25 416.67,-82.3 406.61,-74.97 398.03,-67.7"/>
<polygon fill="#334155" stroke="#334155" stroke-width="0.8" points="390.71,-61.18 401.17,-64.47 393.71,-63.86 398.18,-67.83 398.18,-67.83 398.18,-67.83 393.71,-63.86 395.18,-71.2 390.71,-61.18"/>
</g>
</g>
</svg>
