<?xml version="1.0" encoding="UTF-8" standalone="no"?>
<!DOCTYPE svg PUBLIC "-//W3C//DTD SVG 1.1//EN"
 "http://www.w3.org/Graphics/SVG/1.1/DTD/svg11.dtd">
<!-- Generated by graphviz version 14.1.3 (20260303.0454)
 -->
<!-- Pages: 1 -->
<svg width="8411pt" height="5417pt"
 viewBox="0.00 0.00 8411.00 5417.00" xmlns="http://www.w3.org/2000/svg" xmlns:xlink="http://www.w3.org/1999/xlink">
<g id="graph0" class="graph" transform="scale(4.16667 4.16667) rotate(0) translate(4 1296.18)">
<polygon fill="white" stroke="none" points="-4,4 -4,-1296.18 2014.6,-1296.18 2014.6,4 -4,4"/>
<g id="clust1" class="cluster">
<title>cluster_threats</title>
<polygon fill="white" stroke="#c92a2a" stroke-dasharray="5,2" points="307.85,-899.45 307.85,-1278.55 830.85,-1278.55 830.85,-899.45 307.85,-899.45"/>
<text xml:space="preserve" text-anchor="middle" x="569.35" y="-1263.15" font-family="Arial" font-size="12.00" fill="#c92a2a">🎯 ATTACK SURFACE</text>
</g>
<g id="clust2" class="cluster">
<title>cluster_external</title>
<polygon fill="white" stroke="#f08c00" stroke-dasharray="5,2" points="335.85,-458.85 335.85,-814.82 634.85,-814.82 634.85,-458.85 335.85,-458.85"/>
<text xml:space="preserve" text-anchor="middle" x="485.35" y="-799.42" font-family="Arial" font-size="12.00" fill="#f08c00">🌍 EXTERNAL NETWORK</text>
</g>
<g id="clust3" class="cluster">
<title>cluster_defense</title>
<polygon fill="#f0fff4" stroke="#2f9e44" points="1050.85,-8 1050.85,-820.82 1406.85,-820.82 1406.85,-8 1050.85,-8"/>
<text xml:space="preserve" text-anchor="middle" x="1228.85" y="-805.42" font-family="Arial" font-size="12.00" fill="#2f9e44">🛡️ DEFENSE IN DEPTH</text>
</g>
<g id="clust4" class="cluster">
<title>cluster_crypto</title>
<polygon fill="#f8f0fc" stroke="#9c36b5" points="1414.85,-672.65 1414.85,-1041.62 1790.85,-1041.62 1790.85,-672.65 1414.85,-672.65"/>
<text xml:space="preserve" text-anchor="middle" x="1602.85" y="-1026.22" font-family="Arial" font-size="12.00" fill="#9c36b5">🔒 CRYPTOGRAPHIC PROTECTION</text>
</g>
<g id="clust5" class="cluster">
<title>cluster_internal</title>
<polygon fill="#ebfbee" stroke="#2b8a3e" points="1240.85,-1095.12 1240.85,-1284.18 1458.85,-1284.18 1458.85,-1095.12 1240.85,-1095.12"/>
<text xml:space="preserve" text-anchor="middle" x="1349.85" y="-1268.78" font-family="Arial" font-size="12.00" fill="#2b8a3e">🔒 TRUSTED INTERNAL NETWORK</text>
</g>
<!-- title -->
<g id="node1" class="node">
<title>title</title>
<text xml:space="preserve" text-anchor="middle" x="149.85" y="-1169.45" font-family="Arial" font-size="16.00" fill="#1a1a1a">MTD&#45;HealthNet Threat Model</text>
<text xml:space="preserve" text-anchor="middle" x="149.85" y="-1150.7" font-family="Arial" font-size="16.00" fill="#1a1a1a">Moving Target Defense Architecture</text>
</g>
<!-- attacker -->
<g id="node2" class="node">
<title>attacker</title>
<path fill="#ff6b6b" stroke="#c92a2a" stroke-width="3" d="M626.2,-1223.05C626.2,-1223.05 509.5,-1223.05 509.5,-1223.05 503.5,-1223.05 497.5,-1217.05 497.5,-1211.05 497.5,-1211.05 497.5,-1120.75 497.5,-1120.75 497.5,-1114.75 503.5,-1108.75 509.5,-1108.75 509.5,-1108.75 626.2,-1108.75 626.2,-1108.75 632.2,-1108.75 638.2,-1114.75 638.2,-1120.75 638.2,-1120.75 638.2,-1211.05 638.2,-1211.05 638.2,-1217.05 632.2,-1223.05 626.2,-1223.05"/>
<text xml:space="preserve" text-anchor="middle" x="567.85" y="-1199.15" font-family="Arial" font-size="10.00" fill="white">🎭 ATTACKER</text>
<text xml:space="preserve" text-anchor="middle" x="567.85" y="-1184.9" font-family="Arial" font-size="10.00" fill="white">━━━━━━━━━━</text>
<text xml:space="preserve" text-anchor="middle" x="567.85" y="-1173.65" font-family="Arial" font-size="10.00" fill="white">• Network Scanning</text>
<text xml:space="preserve" text-anchor="middle" x="567.85" y="-1161.65" font-family="Arial" font-size="10.00" fill="white">• Port Enumeration</text>
<text xml:space="preserve" text-anchor="middle" x="567.85" y="-1149.65" font-family="Arial" font-size="10.00" fill="white">• IP Spoofing</text>
<text xml:space="preserve" text-anchor="middle" x="567.85" y="-1137.65" font-family="Arial" font-size="10.00" fill="white">• Payload Injection</text>
<text xml:space="preserve" text-anchor="middle" x="567.85" y="-1125.65" font-family="Arial" font-size="10.00" fill="white">• Session Hijacking</text>
</g>
<!-- recon -->
<g id="node3" class="node">
<title>recon</title>
<path fill="#fa5252" stroke="#c92a2a" stroke-width="2" stroke-dasharray="5,2" d="M622.08,-962.5C622.08,-962.5 513.62,-962.5 513.62,-962.5 507.62,-962.5 501.62,-956.5 501.62,-950.5 501.62,-950.5 501.62,-919.45 501.62,-919.45 501.62,-913.45 507.62,-907.45 513.62,-907.45 513.62,-907.45 622.08,-907.45 622.08,-907.45 628.08,-907.45 634.08,-913.45 634.08,-919.45 634.08,-919.45 634.08,-950.5 634.08,-950.5 634.08,-956.5 628.08,-962.5 622.08,-962.5"/>
<text xml:space="preserve" text-anchor="middle" x="567.85" y="-938.6" font-family="Arial" font-size="10.00" fill="white">❌ Reconnaissance</text>
<text xml:space="preserve" text-anchor="middle" x="567.85" y="-924.35" font-family="Arial" font-size="10.00" fill="white">Scanning 172.16.0.x</text>
</g>
<!-- attacker&#45;&gt;recon -->
<g id="edge14" class="edge">
<title>attacker&#45;&gt;recon</title>
<path fill="none" stroke="#fa5252" stroke-width="2" stroke-dasharray="5,2" d="M567.85,-1107.33C567.85,-1107.33 567.85,-976.34 567.85,-976.34"/>
<polygon fill="#fa5252" stroke="#fa5252" stroke-width="2" points="571.35,-976.34 567.85,-966.34 564.35,-976.34 571.35,-976.34"/>
</g>
<!-- spoof -->
<g id="node4" class="node">
<title>spoof</title>
<path fill="#fa5252" stroke="#c92a2a" stroke-width="2" stroke-dasharray="5,2" d="M431.45,-962.5C431.45,-962.5 328.25,-962.5 328.25,-962.5 322.25,-962.5 316.25,-956.5 316.25,-950.5 316.25,-950.5 316.25,-919.45 316.25,-919.45 316.25,-913.45 322.25,-907.45 328.25,-907.45 328.25,-907.45 431.45,-907.45 431.45,-907.45 437.45,-907.45 443.45,-913.45 443.45,-919.45 443.45,-919.45 443.45,-950.5 443.45,-950.5 443.45,-956.5 437.45,-962.5 431.45,-962.5"/>
<text xml:space="preserve" text-anchor="middle" x="379.85" y="-938.6" font-family="Arial" font-size="10.00" fill="white">❌ IP Spoofing</text>
<text xml:space="preserve" text-anchor="middle" x="379.85" y="-924.35" font-family="Arial" font-size="10.00" fill="white">Masquerade Attack</text>
</g>
<!-- attacker&#45;&gt;spoof -->
<g id="edge18" class="edge">
<title>attacker&#45;&gt;spoof</title>
<path fill="none" stroke="#fa5252" stroke-width="2" stroke-dasharray="5,2" d="M496.24,-1121C443.11,-1121 379.85,-1121 379.85,-1121 379.85,-1121 379.85,-976.26 379.85,-976.26"/>
<polygon fill="#fa5252" stroke="#fa5252" stroke-width="2" points="383.35,-976.26 379.85,-966.26 376.35,-976.26 383.35,-976.26"/>
</g>
<!-- inject -->
<g id="node5" class="node">
<title>inject</title>
<path fill="#fa5252" stroke="#c92a2a" stroke-width="2" stroke-dasharray="5,2" d="M811.33,-962.5C811.33,-962.5 704.38,-962.5 704.38,-962.5 698.38,-962.5 692.38,-956.5 692.38,-950.5 692.38,-950.5 692.38,-919.45 692.38,-919.45 692.38,-913.45 698.38,-907.45 704.38,-907.45 704.38,-907.45 811.33,-907.45 811.33,-907.45 817.33,-907.45 823.33,-913.45 823.33,-919.45 823.33,-919.45 823.33,-950.5 823.33,-950.5 823.33,-956.5 817.33,-962.5 811.33,-962.5"/>
<text xml:space="preserve" text-anchor="middle" x="757.85" y="-938.6" font-family="Arial" font-size="10.00" fill="white">❌ Payload Injection</text>
<text xml:space="preserve" text-anchor="middle" x="757.85" y="-924.35" font-family="Arial" font-size="10.00" fill="white">Malicious Packets</text>
</g>
<!-- attacker&#45;&gt;inject -->
<g id="edge21" class="edge">
<title>attacker&#45;&gt;inject</title>
<path fill="none" stroke="#fa5252" stroke-width="2" stroke-dasharray="5,2" d="M639.68,-1166C693.49,-1166 757.85,-1166 757.85,-1166 757.85,-1166 757.85,-976.33 757.85,-976.33"/>
<polygon fill="#fa5252" stroke="#fa5252" stroke-width="2" points="761.35,-976.33 757.85,-966.33 754.35,-976.33 761.35,-976.33"/>
</g>
<!-- internet -->
<g id="node6" class="node">
<title>internet</title>
<path fill="#ffd93d" stroke="#f08c00" d="M615.33,-759.32C615.33,-759.32 520.38,-759.32 520.38,-759.32 514.38,-759.32 508.38,-753.32 508.38,-747.32 508.38,-747.32 508.38,-716.27 508.38,-716.27 508.38,-710.27 514.38,-704.27 520.38,-704.27 520.38,-704.27 615.33,-704.27 615.33,-704.27 621.33,-704.27 627.33,-710.27 627.33,-716.27 627.33,-716.27 627.33,-747.32 627.33,-747.32 627.33,-753.32 621.33,-759.32 615.33,-759.32"/>
<text xml:space="preserve" text-anchor="middle" x="567.85" y="-735.42" font-family="Arial" font-size="10.00">🌐 INTERNET</text>
<text xml:space="preserve" text-anchor="middle" x="567.85" y="-721.17" font-family="Arial" font-size="10.00">External Network</text>
</g>
<!-- recon&#45;&gt;internet -->
<g id="edge15" class="edge">
<title>recon&#45;&gt;internet</title>
<path fill="none" stroke="#fa5252" stroke-width="2" stroke-dasharray="5,2" d="M567.85,-906.72C567.85,-906.72 567.85,-772.84 567.85,-772.84"/>
<polygon fill="#fa5252" stroke="#fa5252" stroke-width="2" points="571.35,-772.84 567.85,-762.84 564.35,-772.84 571.35,-772.84"/>
<text xml:space="preserve" text-anchor="middle" x="603.85" y="-831.52" font-family="Arial" font-size="9.00" fill="#fa5252">Scan 172.16.0.50</text>
</g>
<!-- policy -->
<g id="node11" class="node">
<title>policy</title>
<path fill="#51cf66" stroke="#2f9e44" d="M1386.45,-329.1C1386.45,-329.1 1259.25,-329.1 1259.25,-329.1 1253.25,-329.1 1247.25,-323.1 1247.25,-317.1 1247.25,-317.1 1247.25,-203.55 1247.25,-203.55 1247.25,-197.55 1253.25,-191.55 1259.25,-191.55 1259.25,-191.55 1386.45,-191.55 1386.45,-191.55 1392.45,-191.55 1398.45,-197.55 1398.45,-203.55 1398.45,-203.55 1398.45,-317.1 1398.45,-317.1 1398.45,-323.1 1392.45,-329.1 1386.45,-329.1"/>
<text xml:space="preserve" text-anchor="middle" x="1322.85" y="-305.2" font-family="Arial" font-size="10.00">🛡️ POLICY ENGINE</text>
<text xml:space="preserve" text-anchor="middle" x="1322.85" y="-290.95" font-family="Arial" font-size="10.00">━━━━━━━━━━</text>
<text xml:space="preserve" text-anchor="middle" x="1322.85" y="-279.7" font-family="Arial" font-size="10.00">Zone ACL Rules:</text>
<text xml:space="preserve" text-anchor="middle" x="1322.85" y="-267.7" font-family="Arial" font-size="10.00">• High → ALL (Allow)</text>
<text xml:space="preserve" text-anchor="middle" x="1322.85" y="-255.7" font-family="Arial" font-size="10.00">• Medium → Low (Allow)</text>
<text xml:space="preserve" text-anchor="middle" x="1322.85" y="-243.7" font-family="Arial" font-size="10.00">• Low → ALL (Deny)</text>
<text xml:space="preserve" text-anchor="middle" x="1322.85" y="-231.7" font-family="Arial" font-size="10.00">━━━━━━━━━━</text>
<text xml:space="preserve" text-anchor="middle" x="1322.85" y="-220.45" font-family="Arial" font-size="10.00">Rate Limiting</text>
<text xml:space="preserve" text-anchor="middle" x="1322.85" y="-208.45" font-family="Arial" font-size="10.00">Anomaly Detection</text>
</g>
<!-- spoof&#45;&gt;policy -->
<g id="edge19" class="edge">
<title>spoof&#45;&gt;policy</title>
<path fill="none" stroke="#fa5252" stroke-width="2" stroke-dasharray="5,2" d="M347.88,-906.75C347.88,-776.17 347.88,-237 347.88,-237 347.88,-237 1233.72,-237 1233.72,-237"/>
<polygon fill="#fa5252" stroke="#fa5252" stroke-width="2" points="1233.72,-240.5 1243.72,-237 1233.72,-233.5 1233.72,-240.5"/>
<text xml:space="preserve" text-anchor="middle" x="294.85" y="-618.6" font-family="Arial" font-size="9.00" fill="#fa5252">Spoof Source IP</text>
</g>
<!-- hash_verify -->
<g id="node15" class="node">
<title>hash_verify</title>
<path fill="#da77f2" stroke="#9c36b5" d="M1568.82,-765.32C1568.82,-765.32 1434.88,-765.32 1434.88,-765.32 1428.88,-765.32 1422.88,-759.32 1422.88,-753.32 1422.88,-753.32 1422.88,-710.27 1422.88,-710.27 1422.88,-704.27 1428.88,-698.27 1434.88,-698.27 1434.88,-698.27 1568.82,-698.27 1568.82,-698.27 1574.82,-698.27 1580.82,-704.27 1580.82,-710.27 1580.82,-710.27 1580.82,-753.32 1580.82,-753.32 1580.82,-759.32 1574.82,-765.32 1568.82,-765.32"/>
<text xml:space="preserve" text-anchor="middle" x="1501.85" y="-741.42" font-family="Arial" font-size="10.00" fill="white">✅ HASH VERIFICATION</text>
<text xml:space="preserve" text-anchor="middle" x="1501.85" y="-727.17" font-family="Arial" font-size="10.00" fill="white">Compare Hashes</text>
<text xml:space="preserve" text-anchor="middle" x="1501.85" y="-715.17" font-family="Arial" font-size="10.00" fill="white">Detect Tampering</text>
</g>
<!-- inject&#45;&gt;hash_verify -->
<g id="edge22" class="edge">
<title>inject&#45;&gt;hash_verify</title>
<path fill="none" stroke="#fa5252" stroke-width="2" stroke-dasharray="5,2" d="M824.12,-944C993.07,-944 1426.69,-944 1426.69,-944 1426.69,-944 1426.69,-778.45 1426.69,-778.45"/>
<polygon fill="#fa5252" stroke="#fa5252" stroke-width="2" points="1430.19,-778.45 1426.69,-768.45 1423.19,-778.45 1430.19,-778.45"/>
<text xml:space="preserve" text-anchor="middle" x="1111.35" y="-831.52" font-family="Arial" font-size="9.00" fill="#fa5252">Malicious Payload</text>
</g>
<!-- client -->
<g id="node7" class="node">
<title>client</title>
<path fill="#ffd93d" stroke="#f08c00" d="M552.58,-521.9C552.58,-521.9 423.12,-521.9 423.12,-521.9 417.12,-521.9 411.12,-515.9 411.12,-509.9 411.12,-509.9 411.12,-478.85 411.12,-478.85 411.12,-472.85 417.12,-466.85 423.12,-466.85 423.12,-466.85 552.58,-466.85 552.58,-466.85 558.58,-466.85 564.58,-472.85 564.58,-478.85 564.58,-478.85 564.58,-509.9 564.58,-509.9 564.58,-515.9 558.58,-521.9 552.58,-521.9"/>
<text xml:space="preserve" text-anchor="middle" x="487.85" y="-498" font-family="Arial" font-size="10.00">💻 LEGITIMATE CLIENT</text>
<text xml:space="preserve" text-anchor="middle" x="487.85" y="-483.75" font-family="Arial" font-size="10.00">Healthcare Workstation</text>
</g>
<!-- internet&#45;&gt;client -->
<g id="edge13" class="edge">
<title>internet&#45;&gt;client</title>
<path fill="none" stroke="#1971c2" stroke-width="2" d="M527.11,-704.1C527.11,-704.1 527.11,-535.29 527.11,-535.29"/>
<polygon fill="#1971c2" stroke="#1971c2" stroke-width="2" points="530.61,-535.29 527.11,-525.29 523.61,-535.29 530.61,-535.29"/>
<text xml:space="preserve" text-anchor="middle" x="450.23" y="-618.6" font-family="Arial" font-size="9.00" fill="#1971c2">⑬ Encrypted Response</text>
</g>
<!-- mtd -->
<g id="node8" class="node">
<title>mtd</title>
<path fill="#339af0" stroke="#1971c2" stroke-width="3" d="M1201.32,-563.15C1201.32,-563.15 1070.38,-563.15 1070.38,-563.15 1064.38,-563.15 1058.38,-557.15 1058.38,-551.15 1058.38,-551.15 1058.38,-437.6 1058.38,-437.6 1058.38,-431.6 1064.38,-425.6 1070.38,-425.6 1070.38,-425.6 1201.32,-425.6 1201.32,-425.6 1207.32,-425.6 1213.32,-431.6 1213.32,-437.6 1213.32,-437.6 1213.32,-551.15 1213.32,-551.15 1213.32,-557.15 1207.32,-563.15 1201.32,-563.15"/>
<text xml:space="preserve" text-anchor="middle" x="1135.85" y="-539.25" font-family="Arial" font-size="10.00" fill="white">🔄 MTD ENGINE</text>
<text xml:space="preserve" text-anchor="middle" x="1135.85" y="-525" font-family="Arial" font-size="10.00" fill="white">━━━━━━━━━━</text>
<text xml:space="preserve" text-anchor="middle" x="1135.85" y="-513.75" font-family="Arial" font-size="10.00" fill="white">Zone&#45;Based IP Hopping:</text>
<text xml:space="preserve" text-anchor="middle" x="1135.85" y="-501.75" font-family="Arial" font-size="10.00" fill="white">• High Risk: 120s interval</text>
<text xml:space="preserve" text-anchor="middle" x="1135.85" y="-489.75" font-family="Arial" font-size="10.00" fill="white">• Med Risk: 100s interval</text>
<text xml:space="preserve" text-anchor="middle" x="1135.85" y="-477.75" font-family="Arial" font-size="10.00" fill="white">• Low Risk: 80s interval</text>
<text xml:space="preserve" text-anchor="middle" x="1135.85" y="-465.75" font-family="Arial" font-size="10.00" fill="white">━━━━━━━━━━</text>
<text xml:space="preserve" text-anchor="middle" x="1135.85" y="-454.5" font-family="Arial" font-size="10.00" fill="white">Port Randomization</text>
<text xml:space="preserve" text-anchor="middle" x="1135.85" y="-442.5" font-family="Arial" font-size="10.00" fill="white">Flow Table Updates</text>
</g>
<!-- internet&#45;&gt;mtd -->
<g id="edge2" class="edge">
<title>internet&#45;&gt;mtd</title>
<path fill="none" stroke="#2f9e44" stroke-width="2" d="M611.64,-704.13C611.64,-652.58 611.64,-547 611.64,-547 611.64,-547 1044.06,-547 1044.06,-547"/>
<polygon fill="#2f9e44" stroke="#2f9e44" stroke-width="2" points="1044.06,-550.5 1054.06,-547 1044.06,-543.5 1044.06,-550.5"/>
<text xml:space="preserve" text-anchor="middle" x="723.6" y="-618.6" font-family="Arial" font-size="9.00" fill="#2f9e44">② Route to MTD</text>
</g>
<!-- internet&#45;&gt;mtd -->
<g id="edge16" class="edge">
<title>internet&#45;&gt;mtd</title>
<path fill="none" stroke="#fa5252" stroke-width="2" stroke-dasharray="5,2" d="M580.26,-704.16C580.26,-648.9 580.26,-530 580.26,-530 580.26,-530 1044.11,-530 1044.11,-530"/>
<polygon fill="#fa5252" stroke="#fa5252" stroke-width="2" points="1044.11,-533.5 1054.11,-530 1044.11,-526.5 1044.11,-533.5"/>
<text xml:space="preserve" text-anchor="middle" x="872.23" y="-618.6" font-family="Arial" font-size="9.00" fill="#fa5252">IP hopped to 172.16.0.75</text>
</g>
<!-- client&#45;&gt;internet -->
<g id="edge1" class="edge">
<title>client&#45;&gt;internet</title>
<path fill="none" stroke="#2f9e44" stroke-width="2" d="M545.84,-522.08C545.84,-522.08 545.84,-690.88 545.84,-690.88"/>
<polygon fill="#2f9e44" stroke="#2f9e44" stroke-width="2" points="542.34,-690.88 545.84,-700.88 549.34,-690.88 542.34,-690.88"/>
<text xml:space="preserve" text-anchor="middle" x="594.48" y="-623.85" font-family="Arial" font-size="9.00" fill="#2f9e44">① Request</text>
<text xml:space="preserve" text-anchor="middle" x="594.48" y="-613.35" font-family="Arial" font-size="9.00" fill="#2f9e44">dst: 172.16.0.50</text>
</g>
<!-- mtd&#45;&gt;recon -->
<g id="edge17" class="edge">
<title>mtd&#45;&gt;recon</title>
<path fill="none" stroke="#fa5252" stroke-width="2" stroke-dasharray="5,2" d="M1057.09,-555C923.13,-555 665.29,-555 665.29,-555 665.29,-555 665.29,-935 665.29,-935 665.29,-935 648.02,-935 648.02,-935"/>
<polygon fill="#fa5252" stroke="#fa5252" stroke-width="2" points="648.02,-931.5 638.02,-935 648.02,-938.5 648.02,-931.5"/>
<text xml:space="preserve" text-anchor="middle" x="877.23" y="-729.25" font-family="Arial" font-size="9.00" fill="#fa5252">❌ Stale IP</text>
</g>
<!-- mtd&#45;&gt;internet -->
<g id="edge12" class="edge">
<title>mtd&#45;&gt;internet</title>
<path fill="none" stroke="#1971c2" stroke-width="2" d="M1057.06,-538C907.2,-538 595.95,-538 595.95,-538 595.95,-538 595.95,-691.01 595.95,-691.01"/>
<polygon fill="#1971c2" stroke="#1971c2" stroke-width="2" points="592.45,-691.01 595.95,-701.01 599.45,-691.01 592.45,-691.01"/>
<text xml:space="preserve" text-anchor="middle" x="1084.47" y="-623.85" font-family="Arial" font-size="9.00" fill="#1971c2">⑫ IP Hopped!</text>
<text xml:space="preserve" text-anchor="middle" x="1084.47" y="-613.35" font-family="Arial" font-size="9.00" fill="#1971c2">src: 172.16.0.75</text>
</g>
<!-- dnat -->
<g id="node9" class="node">
<title>dnat</title>
<path fill="#51cf66" stroke="#2f9e44" d="M1378.82,-83.05C1378.82,-83.05 1262.88,-83.05 1262.88,-83.05 1256.88,-83.05 1250.88,-77.05 1250.88,-71.05 1250.88,-71.05 1250.88,-28 1250.88,-28 1250.88,-22 1256.88,-16 1262.88,-16 1262.88,-16 1378.82,-16 1378.82,-16 1384.82,-16 1390.82,-22 1390.82,-28 1390.82,-28 1390.82,-71.05 1390.82,-71.05 1390.82,-77.05 1384.82,-83.05 1378.82,-83.05"/>
<text xml:space="preserve" text-anchor="middle" x="1320.85" y="-59.15" font-family="Arial" font-size="10.00">📥 DNAT TABLE</text>
<text xml:space="preserve" text-anchor="middle" x="1320.85" y="-44.9" font-family="Arial" font-size="10.00">Public → Private</text>
<text xml:space="preserve" text-anchor="middle" x="1320.85" y="-32.9" font-family="Arial" font-size="10.00">172.16.0.y → 10.0.0.x</text>
</g>
<!-- mtd&#45;&gt;dnat -->
<g id="edge25" class="edge">
<title>mtd&#45;&gt;dnat</title>
<path fill="none" stroke="#868e96" stroke-width="2" stroke-dasharray="1,5" d="M1135.85,-411.43C1135.85,-411.43 1135.85,-50 1135.85,-50 1135.85,-50 1237.35,-50 1237.35,-50"/>
<polygon fill="#868e96" stroke="#868e96" stroke-width="2" points="1132.35,-411.43 1135.85,-421.43 1139.35,-411.43 1132.35,-411.43"/>
<polygon fill="#868e96" stroke="#868e96" stroke-width="2" points="1237.35,-53.5 1247.35,-50 1237.35,-46.5 1237.35,-53.5"/>
<text xml:space="preserve" text-anchor="middle" x="1153.22" y="-257.03" font-family="Arial" font-size="9.00" fill="#495057">Update Mappings</text>
</g>
<!-- snat -->
<g id="node10" class="node">
<title>snat</title>
<path fill="#51cf66" stroke="#2f9e44" d="M1191.82,-765.32C1191.82,-765.32 1075.88,-765.32 1075.88,-765.32 1069.88,-765.32 1063.88,-759.32 1063.88,-753.32 1063.88,-753.32 1063.88,-710.27 1063.88,-710.27 1063.88,-704.27 1069.88,-698.27 1075.88,-698.27 1075.88,-698.27 1191.82,-698.27 1191.82,-698.27 1197.82,-698.27 1203.82,-704.27 1203.82,-710.27 1203.82,-710.27 1203.82,-753.32 1203.82,-753.32 1203.82,-759.32 1197.82,-765.32 1191.82,-765.32"/>
<text xml:space="preserve" text-anchor="middle" x="1133.85" y="-741.42" font-family="Arial" font-size="10.00">📤 SNAT TABLE</text>
<text xml:space="preserve" text-anchor="middle" x="1133.85" y="-727.17" font-family="Arial" font-size="10.00">Private → Public</text>
<text xml:space="preserve" text-anchor="middle" x="1133.85" y="-715.17" font-family="Arial" font-size="10.00">10.0.0.x → 172.16.0.y</text>
</g>
<!-- mtd&#45;&gt;snat -->
<g id="edge24" class="edge">
<title>mtd&#45;&gt;snat</title>
<path fill="none" stroke="#868e96" stroke-width="2" stroke-dasharray="1,5" d="M1157.18,-577.67C1157.18,-577.67 1157.18,-684.99 1157.18,-684.99"/>
<polygon fill="#868e96" stroke="#868e96" stroke-width="2" points="1160.68,-577.67 1157.18,-567.67 1153.68,-577.67 1160.68,-577.67"/>
<polygon fill="#868e96" stroke="#868e96" stroke-width="2" points="1153.68,-684.99 1157.18,-694.99 1160.68,-684.99 1153.68,-684.99"/>
<text xml:space="preserve" text-anchor="middle" x="1366.1" y="-623.85" font-family="Arial" font-size="9.00" fill="#495057">Periodic Shuffle</text>
<text xml:space="preserve" text-anchor="middle" x="1366.1" y="-613.35" font-family="Arial" font-size="9.00" fill="#495057">(every 80&#45;120s)</text>
</g>
<!-- mtd&#45;&gt;policy -->
<g id="edge3" class="edge">
<title>mtd&#45;&gt;policy</title>
<path fill="none" stroke="#2f9e44" stroke-width="2" d="M1214.7,-494C1236.63,-494 1254.56,-494 1254.56,-494 1254.56,-494 1254.56,-342.51 1254.56,-342.51"/>
<polygon fill="#2f9e44" stroke="#2f9e44" stroke-width="2" points="1258.06,-342.51 1254.56,-332.51 1251.06,-342.51 1258.06,-342.51"/>
<text xml:space="preserve" text-anchor="middle" x="1193.1" y="-374.05" font-family="Arial" font-size="9.00" fill="#2f9e44">③ Check Policy</text>
</g>
<!-- decrypt -->
<g id="node13" class="node">
<title>decrypt</title>
<path fill="#da77f2" stroke="#9c36b5" d="M1559.2,-986.12C1559.2,-986.12 1442.5,-986.12 1442.5,-986.12 1436.5,-986.12 1430.5,-980.12 1430.5,-974.12 1430.5,-974.12 1430.5,-895.82 1430.5,-895.82 1430.5,-889.82 1436.5,-883.82 1442.5,-883.82 1442.5,-883.82 1559.2,-883.82 1559.2,-883.82 1565.2,-883.82 1571.2,-889.82 1571.2,-895.82 1571.2,-895.82 1571.2,-974.12 1571.2,-974.12 1571.2,-980.12 1565.2,-986.12 1559.2,-986.12"/>
<text xml:space="preserve" text-anchor="middle" x="1500.85" y="-962.22" font-family="Arial" font-size="10.00" fill="white">🔓 AES&#45;256&#45;GCM</text>
<text xml:space="preserve" text-anchor="middle" x="1500.85" y="-947.97" font-family="Arial" font-size="10.00" fill="white">DECRYPTION</text>
<text xml:space="preserve" text-anchor="middle" x="1500.85" y="-935.97" font-family="Arial" font-size="10.00" fill="white">━━━━━━━━━━</text>
<text xml:space="preserve" text-anchor="middle" x="1500.85" y="-924.72" font-family="Arial" font-size="10.00" fill="white">Key Derivation</text>
<text xml:space="preserve" text-anchor="middle" x="1500.85" y="-912.72" font-family="Arial" font-size="10.00" fill="white">IV Validation</text>
<text xml:space="preserve" text-anchor="middle" x="1500.85" y="-900.72" font-family="Arial" font-size="10.00" fill="white">Tag Verification</text>
</g>
<!-- dnat&#45;&gt;decrypt -->
<g id="edge5" class="edge">
<title>dnat&#45;&gt;decrypt</title>
<path fill="none" stroke="#2f9e44" stroke-width="2" d="M1391.17,-50C1402.54,-50 1410.66,-50 1410.66,-50 1410.66,-50 1410.66,-896 1410.66,-896 1410.66,-896 1417.2,-896 1417.2,-896"/>
<polygon fill="#2f9e44" stroke="#2f9e44" stroke-width="2" points="1417.2,-899.5 1427.2,-896 1417.2,-892.5 1417.2,-899.5"/>
<text xml:space="preserve" text-anchor="middle" x="1965.22" y="-496.32" font-family="Arial" font-size="9.00" fill="#2f9e44">⑤ Translate</text>
<text xml:space="preserve" text-anchor="middle" x="1965.22" y="-485.82" font-family="Arial" font-size="9.00" fill="#2f9e44">172.16.0.50→10.0.0.2</text>
</g>
<!-- snat&#45;&gt;mtd -->
<g id="edge11" class="edge">
<title>snat&#45;&gt;mtd</title>
<path fill="none" stroke="#1971c2" stroke-width="2" d="M1110.53,-697.78C1110.53,-697.78 1110.53,-577.57 1110.53,-577.57"/>
<polygon fill="#1971c2" stroke="#1971c2" stroke-width="2" points="1114.03,-577.57 1110.53,-567.57 1107.03,-577.57 1114.03,-577.57"/>
<text xml:space="preserve" text-anchor="middle" x="1225.22" y="-629.1" font-family="Arial" font-size="9.00" fill="#1971c2">⑪ Translate</text>
<text xml:space="preserve" text-anchor="middle" x="1225.22" y="-618.6" font-family="Arial" font-size="9.00" fill="#1971c2">10.0.0.2→172.16.0.75</text>
<text xml:space="preserve" text-anchor="middle" x="1225.22" y="-608.1" font-family="Arial" font-size="9.00" fill="#1971c2">(NEW IP!)</text>
</g>
<!-- policy&#45;&gt;spoof -->
<g id="edge20" class="edge">
<title>policy&#45;&gt;spoof</title>
<path fill="none" stroke="#fa5252" stroke-width="2" stroke-dasharray="5,2" d="M1246.85,-283C1022.63,-283 379.5,-283 379.5,-283 379.5,-283 379.5,-893.51 379.5,-893.51"/>
<polygon fill="#fa5252" stroke="#fa5252" stroke-width="2" points="376,-893.51 379.5,-903.51 383,-893.51 376,-893.51"/>
<text xml:space="preserve" text-anchor="middle" x="1721.1" y="-619.35" font-family="Arial" font-size="9.00" fill="#fa5252">❌ Zone Violation</text>
</g>
<!-- policy&#45;&gt;dnat -->
<g id="edge4" class="edge">
<title>policy&#45;&gt;dnat</title>
<path fill="none" stroke="#2f9e44" stroke-width="2" d="M1320.85,-191.3C1320.85,-191.3 1320.85,-96.53 1320.85,-96.53"/>
<polygon fill="#2f9e44" stroke="#2f9e44" stroke-width="2" points="1324.35,-96.53 1320.85,-86.53 1317.35,-96.53 1324.35,-96.53"/>
<text xml:space="preserve" text-anchor="middle" x="1356.22" y="-140" font-family="Arial" font-size="9.00" fill="#2f9e44">④ ✅ ALLOW</text>
<text xml:space="preserve" text-anchor="middle" x="1356.22" y="-128" font-family="Arial" font-size="9.00" fill="#2f9e44">(zone check passed)</text>
</g>
<!-- encrypt -->
<g id="node12" class="node">
<title>encrypt</title>
<path fill="#da77f2" stroke="#9c36b5" d="M1770.7,-782.95C1770.7,-782.95 1651,-782.95 1651,-782.95 1645,-782.95 1639,-776.95 1639,-770.95 1639,-770.95 1639,-692.65 1639,-692.65 1639,-686.65 1645,-680.65 1651,-680.65 1651,-680.65 1770.7,-680.65 1770.7,-680.65 1776.7,-680.65 1782.7,-686.65 1782.7,-692.65 1782.7,-692.65 1782.7,-770.95 1782.7,-770.95 1782.7,-776.95 1776.7,-782.95 1770.7,-782.95"/>
<text xml:space="preserve" text-anchor="middle" x="1710.85" y="-759.05" font-family="Arial" font-size="10.00" fill="white">🔐 AES&#45;256&#45;GCM</text>
<text xml:space="preserve" text-anchor="middle" x="1710.85" y="-744.8" font-family="Arial" font-size="10.00" fill="white">ENCRYPTION</text>
<text xml:space="preserve" text-anchor="middle" x="1710.85" y="-732.8" font-family="Arial" font-size="10.00" fill="white">━━━━━━━━━━</text>
<text xml:space="preserve" text-anchor="middle" x="1710.85" y="-721.55" font-family="Arial" font-size="10.00" fill="white">Random Session Keys</text>
<text xml:space="preserve" text-anchor="middle" x="1710.85" y="-709.55" font-family="Arial" font-size="10.00" fill="white">IV Generation</text>
<text xml:space="preserve" text-anchor="middle" x="1710.85" y="-697.55" font-family="Arial" font-size="10.00" fill="white">AEAD Mode</text>
</g>
<!-- encrypt&#45;&gt;snat -->
<g id="edge10" class="edge">
<title>encrypt&#45;&gt;snat</title>
<path fill="none" stroke="#1971c2" stroke-width="2" d="M1638.65,-774C1483.83,-774 1133.85,-774 1133.85,-774 1133.85,-774 1133.85,-773.15 1133.85,-773.15"/>
<polygon fill="#1971c2" stroke="#1971c2" stroke-width="2" points="1137.35,-778.49 1133.85,-768.49 1130.35,-778.49 1137.35,-778.49"/>
<text xml:space="preserve" text-anchor="middle" x="1313.85" y="-831.52" font-family="Arial" font-size="9.00" fill="#1971c2">⑩ Encrypt with AES&#45;GCM</text>
</g>
<!-- decrypt&#45;&gt;hash_verify -->
<g id="edge6" class="edge">
<title>decrypt&#45;&gt;hash_verify</title>
<path fill="none" stroke="#2f9e44" stroke-width="2" d="M1500.85,-883.44C1500.85,-883.44 1500.85,-778.76 1500.85,-778.76"/>
<polygon fill="#2f9e44" stroke="#2f9e44" stroke-width="2" points="1504.35,-778.76 1500.85,-768.76 1497.35,-778.76 1504.35,-778.76"/>
<text xml:space="preserve" text-anchor="middle" x="1540.22" y="-831.52" font-family="Arial" font-size="9.00" fill="#2f9e44">⑥ Decrypt Payload</text>
</g>
<!-- hash_gen -->
<g id="node14" class="node">
<title>hash_gen</title>
<path fill="#da77f2" stroke="#9c36b5" d="M1770.57,-968.5C1770.57,-968.5 1641.12,-968.5 1641.12,-968.5 1635.12,-968.5 1629.12,-962.5 1629.12,-956.5 1629.12,-956.5 1629.12,-913.45 1629.12,-913.45 1629.12,-907.45 1635.12,-901.45 1641.12,-901.45 1641.12,-901.45 1770.57,-901.45 1770.57,-901.45 1776.57,-901.45 1782.57,-907.45 1782.57,-913.45 1782.57,-913.45 1782.57,-956.5 1782.57,-956.5 1782.57,-962.5 1776.57,-968.5 1770.57,-968.5"/>
<text xml:space="preserve" text-anchor="middle" x="1705.85" y="-944.6" font-family="Arial" font-size="10.00" fill="white">#️⃣ HASH GENERATION</text>
<text xml:space="preserve" text-anchor="middle" x="1705.85" y="-930.35" font-family="Arial" font-size="10.00" fill="white">SHA&#45;256</text>
<text xml:space="preserve" text-anchor="middle" x="1705.85" y="-918.35" font-family="Arial" font-size="10.00" fill="white">Payload Integrity</text>
</g>
<!-- hash_gen&#45;&gt;encrypt -->
<g id="edge9" class="edge">
<title>hash_gen&#45;&gt;encrypt</title>
<path fill="none" stroke="#1971c2" stroke-width="2" d="M1710.79,-900.97C1710.79,-900.97 1710.79,-796.11 1710.79,-796.11"/>
<polygon fill="#1971c2" stroke="#1971c2" stroke-width="2" points="1714.29,-796.11 1710.79,-786.11 1707.29,-796.11 1714.29,-796.11"/>
<text xml:space="preserve" text-anchor="middle" x="1710.6" y="-831.52" font-family="Arial" font-size="9.00" fill="#1971c2">⑨ Generate Hash</text>
</g>
<!-- hash_verify&#45;&gt;inject -->
<g id="edge23" class="edge">
<title>hash_verify&#45;&gt;inject</title>
<path fill="none" stroke="#fa5252" stroke-width="2" stroke-dasharray="5,2" d="M1424.78,-765.63C1424.78,-821.27 1424.78,-926 1424.78,-926 1424.78,-926 837.26,-926 837.26,-926"/>
<polygon fill="#fa5252" stroke="#fa5252" stroke-width="2" points="837.26,-922.5 827.26,-926 837.26,-929.5 837.26,-922.5"/>
<text xml:space="preserve" text-anchor="middle" x="1847.97" y="-832.27" font-family="Arial" font-size="9.00" fill="#fa5252">❌ Hash Mismatch</text>
</g>
<!-- hospital -->
<g id="node16" class="node">
<title>hospital</title>
<path fill="#69db7c" stroke="#2b8a3e" stroke-width="3" d="M1425.82,-1228.68C1425.82,-1228.68 1273.88,-1228.68 1273.88,-1228.68 1267.88,-1228.68 1261.88,-1222.68 1261.88,-1216.68 1261.88,-1216.68 1261.88,-1115.12 1261.88,-1115.12 1261.88,-1109.12 1267.88,-1103.12 1273.88,-1103.12 1273.88,-1103.12 1425.82,-1103.12 1425.82,-1103.12 1431.82,-1103.12 1437.82,-1109.12 1437.82,-1115.12 1437.82,-1115.12 1437.82,-1216.68 1437.82,-1216.68 1437.82,-1222.68 1431.82,-1228.68 1425.82,-1228.68"/>
<text xml:space="preserve" text-anchor="middle" x="1349.85" y="-1204.78" font-family="Arial" font-size="10.00">🏥 HOSPITAL SERVER</text>
<text xml:space="preserve" text-anchor="middle" x="1349.85" y="-1190.53" font-family="Arial" font-size="10.00">━━━━━━━━━━</text>
<text xml:space="preserve" text-anchor="middle" x="1349.85" y="-1179.28" font-family="Arial" font-size="10.00">Private IP: 10.0.0.x</text>
<text xml:space="preserve" text-anchor="middle" x="1349.85" y="-1167.28" font-family="Arial" font-size="10.00">Public IP: 172.16.0.y (rotating)</text>
<text xml:space="preserve" text-anchor="middle" x="1349.85" y="-1155.28" font-family="Arial" font-size="10.00">━━━━━━━━━━</text>
<text xml:space="preserve" text-anchor="middle" x="1349.85" y="-1144.03" font-family="Arial" font-size="10.00">EHR Database</text>
<text xml:space="preserve" text-anchor="middle" x="1349.85" y="-1132.03" font-family="Arial" font-size="10.00">Medical Imaging</text>
<text xml:space="preserve" text-anchor="middle" x="1349.85" y="-1120.03" font-family="Arial" font-size="10.00">Patient Records</text>
</g>
<!-- hash_verify&#45;&gt;hospital -->
<g id="edge7" class="edge">
<title>hash_verify&#45;&gt;hospital</title>
<path fill="none" stroke="#2f9e44" stroke-width="2" d="M1428.59,-765.5C1428.59,-765.5 1428.59,-1088.87 1428.59,-1088.87"/>
<polygon fill="#2f9e44" stroke="#2f9e44" stroke-width="2" points="1425.09,-1088.87 1428.59,-1098.87 1432.09,-1088.87 1425.09,-1088.87"/>
<text xml:space="preserve" text-anchor="middle" x="1337.97" y="-931.67" font-family="Arial" font-size="9.00" fill="#2f9e44">⑦ Verify Integrity</text>
</g>
<!-- hospital&#45;&gt;hash_gen -->
<g id="edge8" class="edge">
<title>hospital&#45;&gt;hash_gen</title>
<path fill="none" stroke="#1971c2" stroke-width="2" d="M1439.22,-1166C1544.68,-1166 1705.85,-1166 1705.85,-1166 1705.85,-1166 1705.85,-981.6 1705.85,-981.6"/>
<polygon fill="#1971c2" stroke="#1971c2" stroke-width="2" points="1709.35,-981.6 1705.85,-971.6 1702.35,-981.6 1709.35,-981.6"/>
<text xml:space="preserve" text-anchor="middle" x="1588.35" y="-1051.58" font-family="Arial" font-size="9.00" fill="#1971c2">⑧ Response Data</text>
</g>
</g>
</svg>
